<?xml version="1.0" standalone="no"?>
<!DOCTYPE svg PUBLIC "-//W3C//DTD SVG 1.1//EN" "http://www.w3.org/Graphics/SVG/1.1/DTD/svg11.dtd" >
<svg xmlns="http://www.w3.org/2000/svg" xmlns:svg="http://www.w3.org/2000/svg" xmlns:xlink="http://www.w3.org/1999/xlink" viewBox="0 0 1024 1024"><path d="M354.43 437.08Q353.56 194.46 383.06 146.88L377.8 122.2Q367.49 119.38 364.91 132.38Q392.23 109.99 407.83 106.58Q466.73 99.92 514.81 102.95Q556.21 128.89 596.89 124.29Q648.03 120.09 625.59 123.67Q644 119.33 618.3 106.96Q631.46 136.2 631.8 168.55Q647.42 180.84 654.42 199.84Q644.72 272.85 652.98 412.36Q627.34 554.72 632.08 627.03Q618.02 678.33 639.85 683.91Q609.53 688.45 617.22 686.62Q590.27 704.47 544.44 709.7Q540.95 679.45 489.32 697.11Q422.46 713.56 418.01 691.8Q384.56 675.92 386.71 693.08Q375.59 669.86 351.11 540.38Q361.78 464.9 355.92 431.75ZM765.52 841.94Q773.74 808.24 805.98 794.33Q829.22 810.65 828.99 800.79Q855.87 809.59 860.6 828.32Q857.1 838.81 877.07 838.08Q875.98 817.83 863.78 733.28Q880.13 648.14 855.15 482.33Q879.51 352.27 865.98 311.64Q883.8 244.9 860.8 176.06Q852.48 159.51 868.46 125.88Q881.5 142.99 897.2 127.69Q884.77 127.37 917.98 139.52Q925.48 115.74 915.44 148.3L951.82 139.03L940.01 516.13Q956.11 697.93 949.31 790.65Q931.06 888.68 922.42 897.77Q935.16 932.84 944.58 930.78Q935.35 912.88 910.95 912.36Q875.32 925.66 847.88 928.9Q824.74 896.54 810.28 889.68Q795.46 854.93 794.78 851.86Q784.8 842.48 787.88 842.44ZM681.47 331.74Q680.34 245.71 682.02 200.83Q706.88 167.84 696.03 132.08Q678.9 140.81 682.78 153.73Q701.64 124.93 693.65 141.41Q720.72 123.02 743.07 125.62Q749.84 114.83 745.35 124.82Q761 143.02 735.17 142.86Q774.67 162.45 749.01 174.53Q771.56 217.16 775.54 325.89Q775.84 404.4 780.66 472.58Q754.73 467.85 786.56 483.37Q770.62 518.43 748.53 512.97Q746.4 535.75 711.02 544.02Q717.63 535.58 704.2 526.93Q702.13 527.84 680.31 480.91Q671.13 451.58 689.84 317.63ZM129.28 845.51Q155.76 813.63 207.3 790.8Q227.65 747.86 225.97 743.98Q247.05 737.21 256.36 736.14Q237.07 765.92 251.55 779.84Q266.8 756.36 296.04 770.9Q286.89 773.55 259.86 797.71Q260.06 830.35 239.24 836.33Q212.49 846.52 196.6 845.7Q178.72 873.02 186.42 888.17Q153 908.9 144.21 896.86Q139.57 908.43 102.14 895.55Q125.81 919.22 93.83 906Q83.16 873.8 70.52 871.56Q62.65 862.06 95.59 833.74ZM451.98 636.1H551.91L561 566.53Q557.78 563.73 553.37 531.75Q563.98 519.18 586.86 523.18Q582.38 509.08 578.01 523.5Q573.01 495.32 568.66 501.38Q568.71 487.95 539.48 493.73Q516.39 490.22 494.62 512.49Q499.99 480.95 476.47 481.91Q452.59 505.5 446.65 503.16Q437.55 508.78 451.63 539.86Q456.23 554.4 461.3 552.92ZM100.49 121.92Q102.03 141.47 114.71 99.03Q126.71 108.9 122.92 113.94Q138.29 110.49 145.62 79.76Q168.71 104.96 186.31 108.2Q201.2 129.41 218.57 134.33Q238.59 130.62 240.11 137.15Q289.1 144.2 289.91 155.66Q296.59 172.56 307.28 177.99Q303.81 198.94 293.09 224.83L286.12 236.06L179.52 189.24Q144.55 183.05 121 163.56Q108.41 167.84 120.44 153.58Q114.66 129.14 106.48 158.39Q113.1 145.77 100.76 120.69ZM510.15 258.64H583.29L572.71 248.83V195.17Q560.11 192.47 580.85 163.31Q555.44 178.78 541.46 175.09Q560.94 161.01 551.99 193.82Q507.7 175.55 505.75 185.78L452.21 187.81V287.48ZM102.64 372.85Q100.5 327.87 102.63 353.11Q105.74 310.38 95.57 320.43Q108.42 336.58 131.5 305.27Q121.67 314.8 125.56 322.18Q140.96 327.99 184.21 344.95Q253.94 346.38 247.84 369Q248.84 367.92 248.89 367.88Q252.01 375.5 254.22 363.54Q261.65 395.39 244.92 402.85Q230.6 416.12 222.53 397.7Q215.31 402.87 197.54 396.72Q145.74 410.06 149.25 413.53L100.75 380.77ZM369.67 817.23Q378.09 762.57 388.53 757.79Q420.06 761.94 439.37 765.59Q424.18 739.67 446 770.97Q470.98 753.75 469.17 803.09Q434.83 809.2 440.01 848.67Q393.33 909.73 376.68 933.36Q381.4 910.9 402.67 904.53Q357.74 919.07 354.77 927.78Q359.65 910.95 356.31 880.73Q331.19 862.28 376.87 829.12ZM509.74 743.4Q521.95 742.34 555.99 743.42Q523.12 714.92 528.79 727.26Q544.37 723.07 560.99 751.02Q591.76 771.39 606.34 784.74Q626.04 852.18 646.66 841.37Q652.54 849.3 645.93 869.97Q630.66 875.61 609.17 879.9Q618.38 895.84 595.08 884.64Q561.71 859.74 563.78 849.51Q501.74 804.24 508.15 802.7Q521.54 762.81 516.8 772.34Q512.35 741.11 513.7 763.98ZM451.1 347.71L439.93 439.29L500.86 407.62Q522.2 447.17 546.69 411.87Q555.26 439.24 562.75 423.57Q556.6 418.96 567.84 423.12Q553.94 397.3 575.48 392.55L581.5 332.69L529.78 330.29Q532.46 333.06 479.32 333.1Q483.62 361.75 458.76 341.71Z" fill="black"></path></svg>